#!OML:ASF F:\VICON\USERDATA\INSTALL\rory3\rory3.ASF
:FULLY-SPECIFIED
:DEGREES
371
root 1.13303 17.7105 41.0463 -4.37198 -4.22706 2.3877
lowerback 10.536 -0.300712 -3.6998
upperback 1.21931 -0.77512 1.07721
thorax -4.57193 -0.308784 3.32371
lowerneck -15.5621 -2.45807 -3.38856
upperneck 22.0916 -3.20821 2.58244
head 9.65907 -1.48823 1.05084
rclavicle -2.13694e-015 -4.37326e-015
rhumerus -32.0395 -19.1084 -78.5231
rradius 28.6123
rwrist 6.08868
rhand -16.7397 21.7647
rfingers 7.12502
rthumb 9.48647 -8.00179
lclavicle -2.13694e-015 -4.37326e-015
lhumerus -24.3142 -3.08069 82.9247
lradius 24.5421
lwrist 8.36924
lhand -29.3146 19.0114
lfingers 7.12502
lthumb -2.65559 48.9746
rfemur -30.0041 -2.8917 20.3176
rtibia 55.915
rfoot -11.6521 -8.92273
rtoes 1.32498
lfemur -0.866057 -1.77369 -27.3362
ltibia 27.3283
lfoot -17.4091 2.4798
ltoes -0.598337
372
root 1.12735 17.7054 41.2077 -4.25712 -4.15347 2.46734
lowerback 10.336 -0.364191 -3.84365
upperback 1.41313 -0.866106 1.07333
thorax -4.24772 -0.36225 3.40761
lowerneck -15.6029 -1.97293 -2.55287
upperneck 21.5608 -2.57964 1.95582
head 9.43776 -1.19738 0.774465
rclavicle 1.32689e-014 3.18055e-015
rhumerus -31.8073 -19.3149 -78.5541
rradius 28.243
rwrist 5.97157
rhand -16.2801 21.6186
rfingers 7.12502
rthumb 9.92991 -8.12722
lclavicle 1.32689e-014 3.18055e-015
lhumerus -23.5202 -3.5528 82.7279
lradius 24.986
lwrist 8.58542
lhand -29.3425 18.652
lfingers 7.12502
lthumb -2.68252 48.6149
rfemur -30.2518 -2.62317 20.2974
rtibia 53.2841
rfoot -11.521 -9.68286
rtoes 0.212098
lfemur 0.0464338 -1.83449 -27.4678
ltibia 26.489
lfoot -17.3268 2.54017
ltoes -1.3885
373
root 1.12074 17.7105 41.3748 -4.25785 -4.13527 2.30105
lowerback 10.479 -0.487794 -3.80104
upperback 1.37535 -1.02702 1.16668
thorax -4.35188 -0.438817 3.50676
lowerneck -15.9021 -2.1752 -2.74806
upperneck 21.9102 -2.83444 2.04773
head 9.62753 -1.31934 0.803539
rclavicle -9.01985e-015 -3.18055e-015
rhumerus -32.1651 -19.2092 -78.5283
rradius 27.9368
rwrist 4.83117
rhand -15.5169 21.3452
rfingers 7.12502
rthumb 10.6662 -8.36409
lclavicle -9.01985e-015 -3.18055e-015
lhumerus -23.1066 -3.3604 82.4601
lradius 25.1646
lwrist 8.45399
lhand -29.2506 17.7382
lfingers 7.12502
lthumb -2.59369 47.7021
rfemur -30.1971 -2.19759 20.4857
rtibia 50.4092
rfoot -11.2065 -10.3942
rtoes -0.353386
lfemur 1.10634 -1.78707 -27.3232
ltibia 25.6559
lfoot -17.3467 2.53276
ltoes -2.02578
374
root 1.10977 17.7256 41.5531 -4.13156 -4.17553 2.16392
lowerback 10.4549 -0.560883 -3.82932
upperback 1.17655 -1.12402 1.26603
thorax -4.53574 -0.477653 3.64296
lowerneck -15.348 -1.8366 -2.2116
upperneck 21.6365 -2.40224 1.6048
head 9.40295 -1.12851 0.620776
rclavicle 1.21507e-014 1.27222e-014
rhumerus -32.8206 -19.1545 -78.2952
rradius 28.1096
rwrist 4.99307
rhand -15.511 19.5757
rfingers 7.12502
rthumb 10.6719 -10.1333
lclavicle 1.21507e-014 1.27222e-014
lhumerus -23.1217 -3.61236 82.3748
lradius 25.5187
lwrist 9.00526
lhand -29.2854 17.0796
lfingers 7.12502
lthumb -2.62731 47.0431
rfemur -30.1922 -1.55241 20.62
rtibia 47.351
rfoot -10.5683 -11.2371
rtoes -0.386412
lfemur 2.03343 -1.63323 -27.1628
ltibia 24.8329
lfoot -17.5637 2.32868
ltoes -2.16005
375
root 1.09822 17.7375 41.7285 -3.8076 -4.2557 2.03905
lowerback 10.0488 -0.527509 -3.709
upperback 1.02676 -1.05111 1.30444
thorax -4.47425 -0.442402 3.59819
lowerneck -15.7454 -2.30595 -2.69308
upperneck 22.2682 -3.03816 2.01366
head 9.72854 -1.4144 0.757201
rclavicle -4.5969e-015 1.27222e-014
rhumerus -33.3762 -19.5663 -77.8855
rradius 28.1126
rwrist 5.89635
rhand -17.4152 19.6164
rfingers 7.12502
rthumb 8.83469 -10.1787
lclavicle -4.5969e-015 1.27222e-014
lhumerus -23.0353 -4.11544 82.3743
lradius 25.9719
lwrist 9.24629
lhand -30.1879 17.3488
lfingers 7.12502
lthumb -3.49892 47.2998
rfemur -30.3634 -0.802807 20.71
rtibia 44.1984
rfoot -9.68982 -12.0621
rtoes -0.380178
lfemur 2.7929 -1.70742 -27.066
ltibia 23.9326
lfoot -17.6569 2.47988
ltoes -2.6207
376
root 1.09537 17.7346 41.8883 -3.43968 -4.13086 2.12475
lowerback 9.72212 -0.518706 -3.60249
upperback 0.871254 -1.01972 1.26414
thorax -4.45997 -0.426865 3.48655
lowerneck -15.2492 -2.50462 -3.34725
upperneck 22.0663 -3.28786 2.55033
head 9.59276 -1.52892 1.02536
rclavicle -3.94588e-014 -5.96354e-015
rhumerus -33.6555 -20.1022 -77.4496
rradius 27.7617
rwrist 6.34745
rhand -18.5735 19.5333
rfingers 7.12502
rthumb 7.71683 -10.3059
lclavicle -3.94588e-014 -5.96354e-015
lhumerus -22.8015 -4.67712 82.4338
lradius 26.4786
lwrist 9.23595
lhand -30.4473 17.3368
lfingers 7.12502
lthumb -3.74944 47.2836
rfemur -30.529 -0.214666 20.4648
rtibia 40.9895
rfoot -8.71436 -12.7583
rtoes -0.577847
lfemur 3.45936 -2.03011 -27.2578
ltibia 23.0462
lfoot -17.513 2.71621
ltoes -3.03775
377
root 1.09019 17.7277 42.0547 -3.14651 -3.82681 2.46293
lowerback 9.47455 -0.772577 -4.08101
upperback 0.898257 -1.40097 1.21599
thorax -4.2503 -0.613008 3.74928
lowerneck -15.7101 -2.17012 -2.68944
upperneck 21.9934 -2.87018 2.12179
head 9.62196 -1.32461 0.816434
rclavicle -7.33018e-015 7.95139e-015
rhumerus -33.3859 -19.7572 -77.7661
rradius 27.4443
rwrist 5.50582
rhand -18.9592 18.9786
rfingers 7.12502
rthumb 7.34449 -10.8739
lclavicle -7.33018e-015 7.95139e-015
lhumerus -22.383 -4.63773 82.0814
lradius 27.128
lwrist 9.42309
lhand -29.5329 17.0086
lfingers 7.12502
lthumb -2.86639 46.969
rfemur -30.4645 0.0778047 19.9114
rtibia 37.6574
rfoot -7.95453 -13.1925
rtoes -1.60807
lfemur 4.036 -2.0179 -27.6139
ltibia 22.4827
lfoot -17.603 2.51599
ltoes -3.78292
378
root 1.07515 17.7306 42.2258 -2.84659 -3.63394 2.2617
lowerback 9.35317 -0.926551 -4.07132
upperback 0.784605 -1.59557 1.34446
thorax -4.27961 -0.705754 3.90138
lowerneck -16.1724 -2.33861 -2.69103
upperneck 22.1962 -3.09437 2.10246
head 9.78635 -1.42694 0.776211
rclavicle -1.70955e-014 1.35174e-014
rhumerus -33.5236 -19.7849 -77.7211
rradius 27.0167
rwrist 4.68553
rhand -18.852 20.5755
rfingers 7.12502
rthumb 7.44802 -9.27334
lclavicle -1.70955e-014 1.35174e-014
lhumerus -22.0741 -4.74417 81.9082
lradius 27.5238
lwrist 9.51094
lhand -30.1959 17.2977
lfingers 7.12502
lthumb -3.50664 47.2486
rfemur -30.3262 0.836312 19.8872
rtibia 34.3321
rfoot -7.6557 -13.8205
rtoes -2.82945
lfemur 4.67721 -1.7461 -27.2753
ltibia 21.8151
lfoot -17.6931 2.10451
ltoes -4.09407
379
root 1.05556 17.7313 42.3661 -2.4038 -3.69936 1.67333
lowerback 9.64015 -0.971162 -3.68852
upperback 0.51621 -1.61571 1.58897
thorax -4.72275 -0.70455 3.95841
lowerneck -16.0551 -2.05933 -2.4179
upperneck 21.9904 -2.69824 1.79533
head 9.67188 -1.25693 0.677058
rclavicle 1.98039e-014 -1.35174e-014
rhumerus -33.6738 -19.7972 -77.6507
rradius 26.6464
rwrist 4.18686
rhand -18.8008 22.2488
rfingers 7.12502
rthumb 7.49744 -7.59833
lclavicle 1.98039e-014 -1.35174e-014
lhumerus -21.8126 -4.82433 81.7996
lradius 27.9278
lwrist 9.5655
lhand -32.1044 17.648
lfingers 7.12502
lthumb -5.34954 47.5605
rfemur -30.3998 2.32098 20.2053
rtibia 30.9365
rfoot -7.68975 -14.9145
rtoes -3.41445
lfemur 4.98376 -1.57325 -26.5102
ltibia 21.2008
lfoot -17.5561 1.91098
ltoes -3.86621
380
root 1.04286 17.7289 42.5553 -2.49157 -3.52716 2.18761
lowerback 9.47673 -0.992871 -4.25281
upperback 0.540065 -1.70494 1.47522
thorax -4.58524 -0.74216 4.16429
lowerneck -16.3537 -2.394 -2.89116
upperneck 22.3938 -3.12947 2.14874
head 9.89617 -1.45312 0.819273
rclavicle 3.26752e-014 -1.23246e-014
rhumerus -34.0832 -19.9892 -77.4268
rradius 26.8657
rwrist 4.57897
rhand -19.0385 21.4927
rfingers 7.12502
rthumb 7.26801 -8.36252
lclavicle 3.26752e-014 -1.23246e-014
lhumerus -21.6851 -5.20306 81.7976
lradius 28.5081
lwrist 10.0289
lhand -32.0349 18.5131
lfingers 7.12502
lthumb -5.28244 48.4273
rfemur -29.7586 3.2403 19.2407
rtibia 27.6425
rfoot -8.59803 -15.5478
rtoes -1.66423
lfemur 6.01387 -1.44613 -27.0735
ltibia 20.5353
lfoot -17.6259 1.99679
ltoes -4.18845
381
root 1.02409 17.7257 42.7307 -2.31571 -3.40486 2.13406
lowerback 9.03626 -1.018 -4.22666
upperback 0.490761 -1.71784 1.48869
thorax -4.38909 -0.753711 4.15184
lowerneck -15.7742 -2.42088 -2.94935
upperneck 22.1482 -3.18379 2.23341
head 9.704 -1.47891 0.857032
rclavicle -2.64881e-014 7.55382e-015
rhumerus -34.2593 -20.8545 -76.863
rradius 26.0981
rwrist 5.33145
rhand -18.9418 22.4591
rfingers 7.12502
rthumb 7.36137 -7.39284
lclavicle -2.64881e-014 7.55382e-015
lhumerus -21.4956 -5.65364 81.7745
lradius 28.7612
lwrist 10.2522
lhand -31.6841 18.9899
lfingers 7.12502
lthumb -4.94367 48.9123
rfemur -29.4478 4.38947 18.8488
rtibia 24.4973
rfoot -9.43846 -16.164
rtoes 0.115217
lfemur 6.67191 -1.26313 -26.9536
ltibia 19.8134
lfoot -17.5924 1.81164
ltoes -3.5436
382
root 1.01492 17.7221 42.9023 -2.08774 -3.01926 2.35827
lowerback 8.69406 -1.12615 -4.3735
upperback 0.376707 -1.86579 1.44976
thorax -4.29829 -0.824928 4.20261
lowerneck -15.0401 -2.28528 -2.89951
upperneck 21.5799 -3.00848 2.2107
head 9.36059 -1.40288 0.870438
rclavicle 7.95139e-016 -3.18055e-015
rhumerus -34.6828 -21.3362 -76.3318
rradius 25.7495
rwrist 5.29101
rhand -18.2366 24.754
rfingers 7.12502
rthumb 8.04199 -5.07301
lclavicle 7.95139e-016 -3.18055e-015
lhumerus -21.2205 -5.65246 81.7492
lradius 28.8752
lwrist 9.65121
lhand -30.756 19.7119
lfingers 7.12502
lthumb -4.04752 49.6532
rfemur -29.3295 5.26929 18.0313
rtibia 21.7684
rfoot -9.88179 -16.4391
rtoes -0.463781
lfemur 7.52544 -1.21067 -27.101
ltibia 18.7738
lfoot -17.4131 1.11291
ltoes -3.37892
